<svg xmlns="http://www.w3.org/2000/svg" viewBox="0 0 512 512"><defs><style>.cls-3{fill:#c18634}.cls-4{fill:#db9932}.cls-6{fill:#b07834}.cls-7{fill:#ac4d2e}.cls-8{fill:#772929}.cls-10{fill:#cda739}.cls-12{fill:#a06931}.cls-13{fill:#b59239}</style></defs><circle cx="256" cy="256" r="256" style="fill:#8fc6b5" id="BULINE"/><g id="Icons"><path d="M475.84 128.83a222.92 222.92 0 0 1-107.41 190.48q-7.69 4.67-15.8 8.72-6.25 3.12-12.72 5.86A221.62 221.62 0 0 1 278.59 350a224.69 224.69 0 0 1-25.29 1.42 222.81 222.81 0 0 1-58.24-7.7 220.57 220.57 0 0 1-21.38-7q-10.1-3.87-19.7-8.67A222.59 222.59 0 0 1 30.82 134.13a257 257 0 0 1 58.51-72.44A54 54 0 0 1 152 22a256.69 256.69 0 0 1 206.65-.59A54 54 0 0 1 416 56.18a257.17 257.17 0 0 1 59.8 68.52c.03 1.37.04 2.75.04 4.13z" style="fill:#77bba8"/><path class="cls-3" d="m148.53 199.44-98.81 57.11c-27.78 16.06-31.61 55.21-6.79 75.57 11.37 9.32 28.74 16.35 55.07 17.71l85.39-89.54zM347 199.44l98.81 57.11c27.79 16.06 31.61 55.21 6.79 75.57-11.37 9.32-28.74 16.35-55.09 17.71l-85.39-89.54z"/><path class="cls-4" d="M104.91 348.12c0 94.71 66.44 126.69 148.39 126.69s148.4-32 148.4-126.69-66.44-171.49-148.4-171.49-148.39 76.78-148.39 171.49z"/><path d="M154 329.47c0 71.81 44.47 96.06 99.33 96.06s99.34-24.25 99.34-96.06-44.47-130-99.34-130-99.33 58.19-99.33 130z" style="fill:#e0ae5d"/><path class="cls-6" d="M195.52 74.91a53.92 53.92 0 1 1-11.77-33.62 53.72 53.72 0 0 1 11.77 33.62z"/><circle class="cls-7" cx="141.61" cy="74.91" r="25.19"/><path class="cls-3" d="M419.38 74.91a53.94 53.94 0 0 1-76.73 48.87 53.93 53.93 0 0 1 16-102.36 53.87 53.87 0 0 1 60.71 53.49z"/><circle class="cls-7" cx="365.46" cy="74.91" r="25.19"/><path class="cls-4" d="M389.61 146.45c0 55.48-33.64 84.59-81.63 95.73-16.18 3.77-34 5.48-52.69 5.48-74.18 0-134.31-27-134.31-101.21a134.32 134.32 0 0 1 268.63 0z"/><path class="cls-3" d="M308 242.18c-16.18 3.77-34 5.48-52.69 5.48-74.18 0-134.31-27-134.31-101.21a134.21 134.21 0 0 1 61.83-113.11C188.54 89 213 182.15 308 242.18z"/><circle class="cls-8" cx="174.09" cy="128.83" r="11.33"/><circle class="cls-8" cx="332.52" cy="128.83" r="11.33"/><ellipse cx="253.3" cy="182.51" rx="67.88" ry="46.3" style="fill:#e5be3d"/><path class="cls-10" d="M215.92 143.87c-18.37 8.29-30.5 22.5-30.5 38.64 0 25.58 30.39 46.31 67.88 46.31a94.67 94.67 0 0 0 29.47-4.58 258.63 258.63 0 0 1-66.85-80.37z"/><ellipse class="cls-7" cx="253.3" cy="171.42" rx="30.23" ry="18.37"/><path d="M246.85 189.36a257.29 257.29 0 0 1-19.95-26.89 13.24 13.24 0 0 0-3.83 8.95c0 8.79 10.19 16.14 23.78 17.94z" style="fill:#9b452d"/><circle class="cls-6" cx="135.9" cy="409.52" r="76.91"/><circle class="cls-10" cx="135.9" cy="409.52" r="47.5"/><path class="cls-12" d="M135 457a47.49 47.49 0 0 1 0-95 77.24 77.24 0 0 1 30.67-23.44 76.92 76.92 0 1 0 0 141.85A77.24 77.24 0 0 1 135 457z"/><path class="cls-13" d="M88.4 409.52A47.5 47.5 0 0 0 135 457a76.83 76.83 0 0 1 0-95 47.5 47.5 0 0 0-46.6 47.52z"/><circle class="cls-6" cx="379.28" cy="409.52" r="76.91"/><circle class="cls-10" cx="379.28" cy="409.52" r="47.5"/><path class="cls-12" d="M378.41 457a47.49 47.49 0 0 1 0-95 77.21 77.21 0 0 1 30.68-23.44 76.92 76.92 0 1 0 0 141.85A77.21 77.21 0 0 1 378.41 457z"/><path class="cls-13" d="M331.77 409.52A47.51 47.51 0 0 0 378.41 457a76.83 76.83 0 0 1 0-95 47.51 47.51 0 0 0-46.64 47.52z"/><path d="M233.92 202.3a30.22 30.22 0 0 0 42.75 0" style="fill:none;stroke:#8f2f2f;stroke-linecap:round;stroke-miterlimit:10;stroke-width:10px"/><ellipse cx="264.14" cy="165.35" rx="10.84" ry="6.07" style="fill:#cd664a"/><path d="m333.79 341.25-56.61 56.62a30.28 30.28 0 0 1-42.83 0l-51.71-51.71-4.91-4.91a51.7 51.7 0 0 1 73.12-73.12 7 7 0 0 0 9.82 0 51.7 51.7 0 0 1 73.12 73.12z" style="fill:#fff"/><path d="m320 339.3-46.9 46.9a25.08 25.08 0 0 1-35.48 0l-42.83-42.83-4.07-4.07a42.83 42.83 0 1 1 60.57-60.57 5.77 5.77 0 0 0 8.14 0A42.83 42.83 0 1 1 320 339.3z" style="fill:#cf4849"/><path d="m300.28 359-27.21 27.2a25.08 25.08 0 0 1-35.48 0l-42.83-42.83-4.07-4.07a42.84 42.84 0 0 1 13.73-69.79c10.82 21.89 40.96 72.29 95.86 89.49z" style="fill:#ac3030"/><ellipse cx="308.88" cy="294.67" rx="12.18" ry="17.97" transform="rotate(-41.47 308.84 294.65)" style="fill:#d98085"/></g></svg>